HIERARCHY
ROOT newVegas:Hips
{
	OFFSET 0.000000 96.479958 0.000000
	CHANNELS 6 Xposition Yposition Zposition Xrotation Yrotation Zrotation
	JOINT newVegas:Pelvis
	{
		OFFSET 0.000000 0.000000 0.000000
		CHANNELS 3 Xrotation Yrotation Zrotation
		JOINT newVegas:LeftUpLeg
		{
			OFFSET 18.735201 -5.666702 -4.541200
			CHANNELS 3 Xrotation Yrotation Zrotation
			JOINT newVegas:LeftLeg
			{
				OFFSET -0.021200 -31.938179 0.493100
				CHANNELS 3 Xrotation Yrotation Zrotation
				JOINT newVegas:LeftFoot
				{
					OFFSET 0.021200 -31.938179 -4.336299
					CHANNELS 3 Xrotation Yrotation Zrotation
					JOINT newVegas:LeftToeBase
					{
						OFFSET 0.943001 -26.722000 15.023500
						CHANNELS 3 Xrotation Yrotation Zrotation
						End Site
						{
							OFFSET 0.000000 30.670183 0.000000
						}
					}
				}
				JOINT newVegas:Left_PantLeg
				{
					OFFSET 0.663870 -9.044666 -1.108900
					CHANNELS 3 Xrotation Yrotation Zrotation
					End Site
					{
						OFFSET 1.415995 20.635357 0.000000
					}
				}
			}
		}
		JOINT newVegas:RightUpLeg
		{
			OFFSET -18.735201 -5.666702 -4.541200
			CHANNELS 3 Xrotation Yrotation Zrotation
			JOINT newVegas:RightLeg
			{
				OFFSET 0.018946 -31.938133 0.493100
				CHANNELS 3 Xrotation Yrotation Zrotation
				JOINT newVegas:RightFoot
				{
					OFFSET -0.018946 -31.938126 -4.336299
					CHANNELS 3 Xrotation Yrotation Zrotation
					JOINT newVegas:RightToeBase
					{
						OFFSET -0.943001 -26.722004 15.023500
						CHANNELS 3 Xrotation Yrotation Zrotation
						End Site
						{
							OFFSET 0.000000 30.670187 0.000000
						}
					}
				}
				JOINT newVegas:Right_PantLeg
				{
					OFFSET -0.661674 -9.044716 -1.108900
					CHANNELS 3 Xrotation Yrotation Zrotation
					End Site
					{
						OFFSET -1.415958 20.635269 0.000000
					}
				}
			}
		}
	}
	JOINT newVegas:Spine
	{
		OFFSET 0.000000 10.199997 -0.299500
		CHANNELS 3 Xrotation Yrotation Zrotation
		JOINT newVegas:Spine1
		{
			OFFSET 0.000000 11.900002 -1.516600
			CHANNELS 3 Xrotation Yrotation Zrotation
			JOINT newVegas:Spine2
			{
				OFFSET 0.000000 13.600006 -2.842500
				CHANNELS 3 Xrotation Yrotation Zrotation
				JOINT newVegas:Neck
				{
					OFFSET 0.000000 9.624100 -2.890100
					CHANNELS 3 Xrotation Yrotation Zrotation
					JOINT newVegas:Head
					{
						OFFSET 0.000000 14.068802 -1.351900
						CHANNELS 3 Xrotation Yrotation Zrotation
						JOINT newVegas:Hair_Back
						{
							OFFSET 0.000000 3.231903 -17.524799
							CHANNELS 3 Xrotation Yrotation Zrotation
							End Site
							{
								OFFSET 0.000000 19.849884 0.000000
							}
						}
						JOINT newVegas:Hair_Front
						{
							OFFSET 0.000000 31.260406 4.573800
							CHANNELS 3 Xrotation Yrotation Zrotation
							JOINT newVegas:Hair_Front1
							{
								OFFSET 0.000000 2.284103 11.993300
								CHANNELS 3 Xrotation Yrotation Zrotation
								JOINT newVegas:Hair_Front2
								{
									OFFSET 0.000000 2.284103 11.993300
									CHANNELS 3 Xrotation Yrotation Zrotation
									End Site
									{
										OFFSET 0.000000 12.208862 0.000000
									}
								}
							}
						}
						JOINT newVegas:Jowel
						{
							OFFSET 0.000000 -7.458206 6.864100
							CHANNELS 3 Xrotation Yrotation Zrotation
							End Site
							{
								OFFSET 0.000000 19.849884 0.000000
							}
						}
					}
				}
				JOINT newVegas:LeftShoulder
				{
					OFFSET 15.263000 10.923401 -0.547700
					CHANNELS 3 Xrotation Yrotation Zrotation
					JOINT newVegas:LeftArm
					{
						OFFSET 25.438599 -2.830597 -13.032500
						CHANNELS 3 Xrotation Yrotation Zrotation
						JOINT newVegas:LeftForeArm
						{
							OFFSET 29.960503 0.000000 0.000000
							CHANNELS 3 Xrotation Yrotation Zrotation
							JOINT newVegas:LeftHand
							{
								OFFSET 27.849251 0.000000 0.000000
								CHANNELS 3 Xrotation Yrotation Zrotation
								JOINT newVegas:LeftHandThumb1
								{
									OFFSET 4.487587 -3.305161 6.305391
									CHANNELS 3 Xrotation Yrotation Zrotation
									JOINT newVegas:LeftHandThumb2
									{
										OFFSET 5.480453 -3.164139 3.164143
										CHANNELS 3 Xrotation Yrotation Zrotation
										JOINT newVegas:LeftHandThumb3
										{
											OFFSET 5.159721 -2.978973 2.978967
											CHANNELS 3 Xrotation Yrotation Zrotation
											End Site
											{
												OFFSET 2.494507 5.926697 1.738678
											}
										}
									}
								}
								JOINT newVegas:LeftHandIndex1
								{
									OFFSET 18.578728 -0.527832 5.208049
									CHANNELS 3 Xrotation Yrotation Zrotation
									JOINT newVegas:LeftHandIndex2
									{
										OFFSET 3.192009 0.000000 0.000000
										CHANNELS 3 Xrotation Yrotation Zrotation
										JOINT newVegas:LeftHandIndex3
										{
											OFFSET 3.835129 0.000000 0.000000
											CHANNELS 3 Xrotation Yrotation Zrotation
											End Site
											{
												OFFSET -0.034599 3.816971 0.371180
											}
										}
									}
								}
								JOINT newVegas:LeftHandMiddle1
								{
									OFFSET 18.476105 0.000000 0.000000
									CHANNELS 3 Xrotation Yrotation Zrotation
									JOINT newVegas:LeftHandMiddle2
									{
										OFFSET 3.324875 0.000000 0.000000
										CHANNELS 3 Xrotation Yrotation Zrotation
										JOINT newVegas:LeftHandMiddle3
										{
											OFFSET 4.596550 0.000000 0.000000
											CHANNELS 3 Xrotation Yrotation Zrotation
											End Site
											{
												OFFSET 0.057701 4.578827 0.399218
											}
										}
									}
								}
								JOINT newVegas:LeftHandRing1
								{
									OFFSET 17.732719 0.121887 -4.201567
									CHANNELS 3 Xrotation Yrotation Zrotation
									JOINT newVegas:LeftHandRing2
									{
										OFFSET 2.733170 0.000000 0.000000
										CHANNELS 3 Xrotation Yrotation Zrotation
										JOINT newVegas:LeftHandRing3
										{
											OFFSET 3.178268 0.000000 0.000000
											CHANNELS 3 Xrotation Yrotation Zrotation
											End Site
											{
												OFFSET 0.119102 3.170624 0.185394
											}
										}
									}
								}
								JOINT newVegas:LeftHandPinky1
								{
									OFFSET 15.989624 -0.606689 -7.535461
									CHANNELS 3 Xrotation Yrotation Zrotation
									JOINT newVegas:LeftHandPinky2
									{
										OFFSET 2.538986 0.000000 0.000000
										CHANNELS 3 Xrotation Yrotation Zrotation
										JOINT newVegas:LeftHandPinky3
										{
											OFFSET 2.593102 0.000000 0.000000
											CHANNELS 3 Xrotation Yrotation Zrotation
											End Site
											{
												OFFSET -0.150902 2.584198 0.152708
											}
										}
									}
								}
							}
							JOINT newVegas:Left_Sleeve
							{
								OFFSET 0.267448 -0.649796 0.577675
								CHANNELS 3 Xrotation Yrotation Zrotation
								End Site
								{
									OFFSET 0.000000 15.991241 0.000000
								}
							}
							JOINT newVegas:Left_CapeC
							{
								OFFSET 15.715958 -8.608795 -6.935905
								CHANNELS 3 Xrotation Yrotation Zrotation
								JOINT newVegas:Left_CapeC1
								{
									OFFSET 0.000000 -8.688499 0.000000
									CHANNELS 3 Xrotation Yrotation Zrotation
									End Site
									{
										OFFSET 0.000000 8.688499 0.000000
									}
								}
							}
						}
						JOINT newVegas:Left_CapeB
						{
							OFFSET 26.118385 -8.608795 -7.079235
							CHANNELS 3 Xrotation Yrotation Zrotation
							JOINT newVegas:Left_CapeB1
							{
								OFFSET 0.000000 -8.688499 0.000000
								CHANNELS 3 Xrotation Yrotation Zrotation
								End Site
								{
									OFFSET 0.000000 8.688499 0.000000
								}
							}
						}
						JOINT newVegas:Left_CapeA
						{
							OFFSET 5.115639 -8.608795 -10.395809
							CHANNELS 3 Xrotation Yrotation Zrotation
							JOINT newVegas:Left_CapeA1
							{
								OFFSET 0.000000 -8.688499 0.000000
								CHANNELS 3 Xrotation Yrotation Zrotation
								End Site
								{
									OFFSET 0.000000 8.688499 0.000000
								}
							}
						}
					}
				}
				JOINT newVegas:RightShoulder
				{
					OFFSET -15.263000 10.923401 -0.547700
					CHANNELS 3 Xrotation Yrotation Zrotation
					JOINT newVegas:RightArm
					{
						OFFSET -25.438599 -2.830597 -13.032500
						CHANNELS 3 Xrotation Yrotation Zrotation
						JOINT newVegas:RightForeArm
						{
							OFFSET -29.960503 0.000000 0.000000
							CHANNELS 3 Xrotation Yrotation Zrotation
							JOINT newVegas:RightHand
							{
								OFFSET -27.849251 0.000000 0.000000
								CHANNELS 3 Xrotation Yrotation Zrotation
								JOINT newVegas:RightHandThumb1
								{
									OFFSET -4.487587 -3.305161 6.305391
									CHANNELS 3 Xrotation Yrotation Zrotation
									JOINT newVegas:RightHandThumb2
									{
										OFFSET -5.480453 -3.164139 3.164143
										CHANNELS 3 Xrotation Yrotation Zrotation
										JOINT newVegas:RightHandThumb3
										{
											OFFSET -5.159721 -2.978973 2.978967
											CHANNELS 3 Xrotation Yrotation Zrotation
											End Site
											{
												OFFSET -2.494507 5.926697 1.738678
											}
										}
									}
								}
								JOINT newVegas:RightHandIndex1
								{
									OFFSET -18.578728 -0.527832 5.208049
									CHANNELS 3 Xrotation Yrotation Zrotation
									JOINT newVegas:RightHandIndex2
									{
										OFFSET -3.192009 0.000000 0.000000
										CHANNELS 3 Xrotation Yrotation Zrotation
										JOINT newVegas:RightHandIndex3
										{
											OFFSET -3.835129 0.000000 0.000000
											CHANNELS 3 Xrotation Yrotation Zrotation
											End Site
											{
												OFFSET 0.034599 3.816971 0.371180
											}
										}
									}
								}
								JOINT newVegas:RightHandMiddle1
								{
									OFFSET -18.476105 0.000000 0.000000
									CHANNELS 3 Xrotation Yrotation Zrotation
									JOINT newVegas:RightHandMiddle2
									{
										OFFSET -3.324875 0.000000 0.000000
										CHANNELS 3 Xrotation Yrotation Zrotation
										JOINT newVegas:RightHandMiddle3
										{
											OFFSET -4.596550 0.000000 0.000000
											CHANNELS 3 Xrotation Yrotation Zrotation
											End Site
											{
												OFFSET -0.057701 4.578827 0.399218
											}
										}
									}
								}
								JOINT newVegas:RightHandRing1
								{
									OFFSET -17.732719 0.121887 -4.201567
									CHANNELS 3 Xrotation Yrotation Zrotation
									JOINT newVegas:RightHandRing2
									{
										OFFSET -2.733170 0.000000 0.000000
										CHANNELS 3 Xrotation Yrotation Zrotation
										JOINT newVegas:RightHandRing3
										{
											OFFSET -3.178268 0.000000 0.000000
											CHANNELS 3 Xrotation Yrotation Zrotation
											End Site
											{
												OFFSET -0.119102 3.170624 0.185394
											}
										}
									}
								}
								JOINT newVegas:RightHandPinky1
								{
									OFFSET -15.989624 -0.606689 -7.535461
									CHANNELS 3 Xrotation Yrotation Zrotation
									JOINT newVegas:RightHandPinky2
									{
										OFFSET -2.538986 0.000000 0.000000
										CHANNELS 3 Xrotation Yrotation Zrotation
										JOINT newVegas:RightHandPinky3
										{
											OFFSET -2.593102 0.000000 0.000000
											CHANNELS 3 Xrotation Yrotation Zrotation
											End Site
											{
												OFFSET 0.150902 2.584198 0.152708
											}
										}
									}
								}
							}
							JOINT newVegas:Right_CapeC
							{
								OFFSET -15.715958 -8.608795 -6.935905
								CHANNELS 3 Xrotation Yrotation Zrotation
								JOINT newVegas:Right_CapeC1
								{
									OFFSET 0.000000 -8.688499 0.000000
									CHANNELS 3 Xrotation Yrotation Zrotation
									End Site
									{
										OFFSET 0.000000 8.688499 0.000000
									}
								}
							}
							JOINT newVegas:Right_Sleeve
							{
								OFFSET -0.267448 -0.649994 0.577675
								CHANNELS 3 Xrotation Yrotation Zrotation
								End Site
								{
									OFFSET 0.000000 15.991302 0.000000
								}
							}
						}
						JOINT newVegas:Right_CapeA
						{
							OFFSET -5.115540 -8.608795 -10.395824
							CHANNELS 3 Xrotation Yrotation Zrotation
							JOINT newVegas:Right_CapeA1
							{
								OFFSET 0.000000 -8.688499 0.000000
								CHANNELS 3 Xrotation Yrotation Zrotation
								End Site
								{
									OFFSET 0.000000 8.688499 0.000000
								}
							}
						}
						JOINT newVegas:Right_CapeB
						{
							OFFSET -26.118187 -8.608795 -7.079266
							CHANNELS 3 Xrotation Yrotation Zrotation
							JOINT newVegas:Right_CapeB1
							{
								OFFSET 0.000000 -8.688499 0.000000
								CHANNELS 3 Xrotation Yrotation Zrotation
								End Site
								{
									OFFSET 0.000000 8.688499 0.000000
								}
							}
						}
					}
				}
				JOINT newVegas:Left_Collar
				{
					OFFSET 18.625099 8.655502 8.828100
					CHANNELS 3 Xrotation Yrotation Zrotation
					JOINT newVegas:Left_Collar1
					{
						OFFSET 14.783401 10.540405 -1.259500
						CHANNELS 3 Xrotation Yrotation Zrotation
						End Site
						{
							OFFSET 0.000000 18.199875 0.000000
						}
					}
				}
				JOINT newVegas:Collar_Back
				{
					OFFSET 0.000000 15.630707 -20.132601
					CHANNELS 3 Xrotation Yrotation Zrotation
					End Site
					{
						OFFSET 0.000000 22.523010 0.000000
					}
				}
				JOINT newVegas:Left_Peck
				{
					OFFSET 17.239599 -5.132599 25.482599
					CHANNELS 3 Xrotation Yrotation Zrotation
					End Site
					{
						OFFSET 0.000000 22.523010 0.000000
					}
				}
				JOINT newVegas:Right_Peck
				{
					OFFSET -17.239599 -5.132202 25.482599
					CHANNELS 3 Xrotation Yrotation Zrotation
					End Site
					{
						OFFSET 0.000000 22.523010 0.000000
					}
				}
				JOINT newVegas:Right_Collar
				{
					OFFSET -18.625099 8.655792 8.828100
					CHANNELS 3 Xrotation Yrotation Zrotation
					JOINT newVegas:Right_Collar1
					{
						OFFSET -14.783401 10.539993 -1.259500
						CHANNELS 3 Xrotation Yrotation Zrotation
						End Site
						{
							OFFSET 0.000000 18.199631 0.000000
						}
					}
				}
			}
		}
		JOINT newVegas:Belly
		{
			OFFSET 0.000000 -6.540398 9.014299
			CHANNELS 3 Xrotation Yrotation Zrotation
			End Site
			{
				OFFSET 0.000000 11.566666 0.000000
			}
		}
	}
	JOINT newVegas:ElvisFacialAnim_Joint
	{
		OFFSET 1.000000 -95.330101 -8.825800
		CHANNELS 3 Xrotation Yrotation Zrotation
		End Site
		{
			OFFSET 0.000000 35.315800 0.000000
		}
	}
}
MOTION
Frames: 4
Frame Time: 0.016667
58.757339 75.800583 -28.644630 17.245540 -3.499372 714.561605 -0.000000 -0.000000 -0.000000 -83.525051 -4.237524 23.110980 76.523520 6.516140 -6.673686 -8.280311 6.409187 -1.292553 0.000000 0.000000 -0.000000 -0.000000 -0.000000 0.000001 -5.662951 -10.922564 -5.402131 44.640327 -11.132638 -7.496166 -4.148272 -20.195932 8.862410 -0.000001 0.000003 -0.000001 -0.000002 -0.000003 -0.000001 37.308744 -3.405175 -8.279193 3.324711 -0.005392 1.710501 3.320205 0.069691 1.714684 -4.279572 -0.131702 -0.824847 -4.279579 -0.131703 -0.824855 -0.000002 -0.000001 -0.000000 -4.279549 -0.131704 -0.824851 -4.279596 -0.131712 -0.824845 -0.000003 -0.000000 -0.000000 -0.000002 -0.000001 -0.000000 -0.036526 1.382370 3.025445 -21.303538 22.272369 -26.305090 -0.000030 -81.466726 -0.000017 21.775893 22.164261 25.734531 3.362066 12.388426 8.079683 1.012541 0.452051 -1.079082 -0.000004 -0.000001 -0.000004 5.064590 -21.352657 12.934717 2.609078 5.399418 -51.555374 -0.000001 -0.000004 -0.000001 1.066102 -16.631089 2.806723 1.129306 3.783492 -33.228488 0.000000 -0.000000 0.000002 -1.597798 -11.079081 -8.654913 0.192418 1.619529 -13.549490 -0.000001 -0.000001 -0.000001 -0.084870 0.765978 -17.087381 -0.017974 -4.042612 -0.607467 0.000001 0.000005 0.000004 0.000002 -0.000004 -0.000002 0.000002 -0.000004 -0.000002 0.000002 -0.000004 -0.000002 0.000002 0.000000 0.000003 0.000002 -0.000001 0.000003 0.000002 0.000000 0.000003 0.000002 -0.000001 0.000003 0.009044 -1.155008 -3.674751 151.437588 190.135227 -164.585689 -0.000010 51.387973 0.000010 -20.829637 10.502363 -15.904642 -12.864461 13.318242 -9.916084 16.682867 -44.602201 -3.768057 -0.000000 0.000001 0.000006 2.738898 8.449593 -20.575392 4.083430 -6.332781 65.597369 -0.000002 0.000001 -0.000003 0.622153 6.773493 -5.159535 1.887349 -4.767023 43.179869 -0.000001 0.000003 -0.000001 -1.131954 4.266776 13.029855 0.409723 -2.355798 19.729447 -0.000000 0.000002 0.000001 -0.719367 -0.384314 28.142253 0.000002 0.000028 0.000084 0.000000 -0.000000 0.000002 -0.000000 -0.000001 0.000001 -0.000000 -0.000001 0.000001 -0.000000 -0.000001 0.000003 -0.000001 0.000000 -0.000000 -0.000001 0.000001 -0.000000 -0.000001 0.000000 -0.000000 -0.000001 0.000001 -0.000000 0.000001 0.000000 0.000000 0.000001 0.000000 0.000000 0.000001 0.000000 0.000000 0.000001 0.000000 0.000000 0.000001 0.000000 0.000000 0.000001 0.000000 0.000000 0.000001 0.000000 0.000000 0.000001 -0.000001 -0.000000 -0.000000 -0.000000 -0.000000 
59.811497 76.257980 -29.732279 17.308562 -5.025740 715.351393 -0.000001 0.000000 0.000001 -82.904939 -3.197364 22.769134 75.085574 6.564812 -7.354807 -7.951159 8.111421 -0.029763 -0.000000 0.000002 0.000000 -0.000000 -0.000000 0.000000 -0.556328 -10.882289 -4.203636 40.131869 -10.910416 -6.522726 -3.140303 -18.801173 11.244982 -0.000001 0.000001 -0.000001 -0.000001 -0.000001 -0.000002 36.472565 -2.469548 -9.673506 3.203189 0.198378 1.111124 3.193079 0.230345 1.099231 -4.238789 -0.187762 -0.768190 -4.238794 -0.187763 -0.768188 0.000005 -0.000000 0.000001 -4.238756 -0.187765 -0.768194 -4.238776 -0.187771 -0.768192 -0.000002 0.000001 -0.000000 0.000005 -0.000000 0.000000 -0.064977 1.578012 3.152919 -19.174938 24.361905 -27.926280 0.000020 -79.166913 -0.000009 21.742814 19.912870 24.059541 3.300150 12.418656 8.222852 1.008025 -0.217206 -0.718188 -0.000003 0.000000 -0.000000 4.214796 -15.938714 14.998018 3.065111 5.730346 -56.255449 0.000001 0.000002 -0.000001 1.006705 -12.867778 3.880728 1.355402 4.107161 -36.513665 0.000000 -0.000000 0.000000 -1.397087 -9.004247 -9.001282 0.249869 1.841584 -15.451986 0.000002 -0.000003 0.000004 0.061040 1.327422 -18.765378 -0.017894 -4.036228 -0.660480 0.000001 0.000002 -0.000001 0.000001 -0.000004 0.000003 0.000001 -0.000004 0.000003 0.000001 -0.000004 0.000003 0.000000 -0.000001 -0.000002 -0.000000 -0.000001 -0.000002 0.000000 -0.000001 -0.000002 -0.000000 -0.000001 -0.000002 -0.017756 -1.281128 -4.036782 149.113370 185.575529 -167.091835 0.000006 50.080170 -0.000005 -19.793525 12.357528 -14.829775 -13.267553 13.341868 -12.514664 15.746238 -41.085005 -3.297758 -0.000001 0.000001 0.000002 2.814791 8.183794 -22.162053 4.115556 -6.347173 65.888192 0.000001 0.000001 0.000001 0.741422 6.628451 -6.461716 1.897009 -4.777272 43.296077 -0.000000 -0.000001 -0.000003 -1.020984 4.235026 12.021048 0.410793 -2.358794 19.755482 0.000000 0.000001 -0.000001 -0.697544 -0.328814 27.345144 0.000002 0.000004 -0.000003 0.000001 -0.000005 -0.000001 0.000000 0.000000 -0.000000 0.000000 -0.000002 0.000002 0.000000 -0.000000 0.000000 -0.000000 0.000000 -0.000000 -0.000000 0.000000 -0.000000 -0.000000 0.000000 -0.000000 -0.000000 0.000000 -0.000000 -0.000002 0.000001 0.000001 -0.000002 0.000001 0.000001 -0.000002 0.000001 0.000001 -0.000002 0.000001 0.000001 -0.000002 0.000001 0.000001 -0.000002 0.000001 0.000001 -0.000002 0.000001 0.000001 -0.000001 0.000000 0.000000 -0.000001 0.000000 0.000001 
60.808281 76.697166 -30.893190 17.412582 -6.546839 716.183747 0.000000 -0.000000 -0.000000 -82.304954 -2.282112 22.350187 73.422710 6.637699 -7.982781 -7.395191 9.886528 1.117294 -0.000000 -0.000000 -0.000000 0.000000 -0.000001 -0.000000 4.573986 -10.584624 -3.163621 35.109010 -10.751157 -5.627202 -1.655568 -16.824825 14.059893 -0.000000 -0.000003 0.000001 -0.000002 -0.000002 -0.000002 35.601821 -1.409047 -11.009286 3.102292 0.410910 0.463500 3.088655 0.399143 0.434617 -4.182058 -0.243976 -0.715530 -4.182101 -0.243973 -0.715521 -0.000000 -0.000000 -0.000001 -4.182033 -0.243969 -0.715535 -4.182032 -0.244010 -0.715521 0.000003 -0.000000 -0.000000 -0.000000 -0.000000 -0.000001 -0.090151 1.713343 3.358269 -16.735193 26.258222 -29.749572 0.000007 -77.279718 -0.000004 21.168182 16.678145 23.120219 3.223328 12.405562 8.352247 1.171324 -0.386797 -0.336142 -0.000002 0.000002 0.000002 3.171735 -11.670055 16.036835 3.435154 5.959764 -59.887877 -0.000003 -0.000002 -0.000002 0.764256 -9.819705 4.058100 1.547608 4.354143 -39.118700 0.000002 -0.000003 -0.000002 -1.318745 -7.310449 -10.035991 0.303196 2.024577 -17.033015 -0.000001 0.000001 0.000004 0.225488 1.872626 -20.940740 -0.017949 -4.040807 -0.622518 0.000000 0.000003 0.000003 0.000003 -0.000001 -0.000001 0.000003 -0.000001 -0.000001 0.000003 -0.000001 -0.000001 0.000005 0.000003 -0.000003 0.000005 0.000003 -0.000003 0.000005 0.000003 -0.000003 0.000005 0.000003 -0.000003 -0.038192 -1.352650 -4.346497 147.092454 180.964906 -169.251965 -0.000002 48.885057 0.000003 -18.426940 14.080509 -13.748978 -13.525661 12.937298 -15.007824 14.406549 -36.388232 -2.721939 -0.000000 0.000002 -0.000001 2.795222 7.831814 -23.384657 4.114983 -6.346918 65.882905 -0.000001 0.000001 0.000001 0.814597 6.378998 -7.540852 1.891389 -4.771308 43.228472 -0.000001 -0.000000 -0.000001 -0.905253 4.118209 11.081090 0.408466 -2.352303 19.698728 0.000001 0.000003 -0.000001 -0.655699 -0.308710 26.499671 0.000004 0.000016 -0.000002 -0.000000 0.000002 -0.000003 0.000000 0.000002 0.000000 0.000000 0.000001 0.000000 0.000000 0.000001 0.000002 -0.000001 -0.000001 0.000001 -0.000001 -0.000001 0.000001 -0.000001 -0.000001 0.000001 -0.000001 -0.000001 0.000001 0.000000 -0.000000 -0.000000 0.000000 -0.000000 -0.000000 0.000000 -0.000000 -0.000000 0.000000 -0.000000 -0.000000 0.000000 -0.000000 -0.000000 0.000000 -0.000000 -0.000000 0.000000 -0.000000 -0.000000 0.000001 -0.000002 0.000000 0.000000 -0.000000 -0.000000 
61.756069 77.091461 -32.131878 17.612771 -8.049459 717.032057 0.000001 0.000001 -0.000000 -81.837332 -1.522743 21.898867 71.592568 6.746803 -8.582127 -6.610113 11.691752 2.181948 -0.000000 0.000002 0.000000 -0.000001 0.000003 0.000000 9.685807 -10.049018 -2.218645 29.434936 -10.703519 -4.801291 0.533304 -14.361361 17.078794 0.000001 -0.000001 -0.000000 0.000000 -0.000001 -0.000000 34.606967 -0.225513 -12.230489 3.020524 0.627742 -0.197872 3.005871 0.573895 -0.244529 -4.112853 -0.299749 -0.667752 -4.112827 -0.299748 -0.667763 0.000001 0.000001 -0.000000 -4.112759 -0.299728 -0.667756 -4.112961 -0.299780 -0.667748 0.000001 0.000000 -0.000000 0.000001 0.000001 -0.000000 -0.103285 1.737704 3.579329 -13.950995 28.085738 -31.729801 0.000032 -75.802601 0.000003 19.977701 12.451164 22.902297 3.128243 12.344149 8.469753 1.295410 -0.491934 -0.133281 -0.000002 -0.000000 0.000001 2.327532 -8.788931 16.270991 3.698104 6.103882 -62.389871 0.000001 -0.000002 -0.000002 0.517672 -7.684718 3.572685 1.690838 4.524059 -40.969011 -0.000000 -0.000000 0.000001 -1.317528 -6.088514 -11.508992 0.346170 2.159696 -18.209614 -0.000001 -0.000002 0.000001 0.393691 2.345663 -23.342615 -0.018055 -4.049848 -0.547523 0.000000 -0.000004 -0.000001 -0.000001 0.000001 -0.000003 -0.000001 0.000001 -0.000003 -0.000001 0.000001 -0.000003 -0.000001 0.000002 -0.000004 -0.000001 0.000001 -0.000004 -0.000001 0.000002 -0.000004 -0.000001 0.000001 -0.000004 -0.053441 -1.346303 -4.684765 145.443933 176.423335 -171.083521 -0.000011 47.935261 0.000006 -16.712274 15.308547 -12.732609 -13.646757 12.018245 -17.311593 12.612636 -30.503642 -2.049853 -0.000001 -0.000003 0.000002 2.676472 7.399304 -24.154648 4.072190 -6.327702 65.495292 0.000001 -0.000001 -0.000000 0.833902 6.021673 -8.333765 1.866125 -4.744349 42.923754 -0.000001 -0.000003 -0.000002 -0.789140 3.905380 10.244400 0.401821 -2.333667 19.536269 -0.000000 0.000001 0.000003 -0.592029 -0.333987 25.618042 0.000001 0.000008 0.000001 -0.000002 0.000002 0.000001 -0.000000 0.000002 0.000000 -0.000000 0.000002 0.000000 -0.000000 0.000002 -0.000000 -0.000001 -0.000001 0.000001 -0.000001 -0.000001 0.000001 -0.000001 -0.000001 0.000001 -0.000001 -0.000001 0.000001 0.000000 0.000001 0.000001 0.000000 0.000001 0.000001 0.000000 0.000001 0.000001 0.000000 0.000001 0.000001 0.000000 0.000001 0.000001 0.000000 0.000001 0.000001 0.000000 0.000001 0.000001 0.000002 -0.000001 -0.000000 0.000001 0.000001 -0.000000 
